#!OML:ASF F:\VICON\USERDATA\INSTALL\rory3\rory3.ASF
:FULLY-SPECIFIED
:DEGREES
492
root 2.68089 20.2428 7.87165 20.266 -3.07881 -6.45723
lowerback -7.67238 0.701126 5.65782
upperback -6.5953 0.66482 2.58366
thorax -2.52311 0.177315 -0.457899
lowerneck -11.9024 -4.50259 -5.78071
upperneck 23.7973 -5.81945 2.97429
head 9.75646 -2.9031 1.30687
rclavicle -2.5345e-015 -2.50469e-014
rhumerus -45.1955 13.313 -81.0644
rradius 53.0219
rwrist 10.4769
rhand -26.8282 -45.4977
rfingers 7.12502
rthumb -0.254129 -75.4773
lclavicle -2.5345e-015 -2.50469e-014
lhumerus -45.6864 -23.2055 78.4629
lradius 63.7071
lwrist -6.13038
lhand -33.4889 -44.5595
lfingers 7.12502
lthumb -6.68618 -14.6851
rfemur -46.4295 0.446781 12.6053
rtibia 57.8585
rfoot 15.0061 -3.38668
rtoes -26.6834
lfemur -32.1441 -1.91075 -11.7513
ltibia 28.0121
lfoot 20.2561 10.1227
ltoes -15.8607
493
root 2.73433 20.3645 7.83109 20.3322 -3.23087 -6.56836
lowerback -7.41593 0.628286 5.64216
upperback -6.67459 0.593374 2.61156
thorax -2.75224 0.13625 -0.42573
lowerneck -11.6226 -4.58666 -5.67896
upperneck 23.5848 -5.89686 2.67842
head 9.6193 -2.9663 1.18438
rclavicle -2.48108e-014 -1.03368e-014
rhumerus -45.0423 13.0695 -81.3543
rradius 52.6974
rwrist 10.7195
rhand -27.0628 -45.1798
rfingers 7.12502
rthumb -0.48079 -75.159
lclavicle -2.48108e-014 -1.03368e-014
lhumerus -46.007 -22.6579 78.7642
lradius 62.623
lwrist -6.20921
lhand -33.5401 -44.0296
lfingers 7.12502
lthumb -6.73557 -14.1567
rfemur -48.3268 0.153735 12.8627
rtibia 62.1822
rfoot 14.0728 -3.42369
rtoes -27.684
lfemur -32.4186 -0.983754 -11.9111
ltibia 28.5333
lfoot 20.5428 8.56712
ltoes -16.504
494
root 2.79379 20.4838 7.78328 20.2703 -3.26919 -6.58503
lowerback -6.96115 0.486461 5.63158
upperback -6.76576 0.445949 2.60145
thorax -3.10749 0.0532445 -0.439203
lowerneck -11.2986 -4.59775 -5.59813
upperneck 23.4336 -5.91201 2.54205
head 9.49826 -2.98559 1.12994
rclavicle -2.75193e-015 1.49089e-014
rhumerus -44.8567 12.7773 -81.6784
rradius 52.2611
rwrist 10.9534
rhand -26.9985 -45.0961
rfingers 7.12502
rthumb -0.418682 -75.0755
lclavicle -2.75193e-015 1.49089e-014
lhumerus -46.5062 -22.0628 79.0598
lradius 61.8105
lwrist -6.02826
lhand -33.4559 -43.7788
lfingers 7.12502
lthumb -6.65436 -13.9034
rfemur -50.1343 -0.33844 13.0831
rtibia 66.5375
rfoot 12.9131 -3.9615
rtoes -27.3326
lfemur -32.4229 -0.428425 -12.0628
ltibia 28.7728
lfoot 20.8841 6.4642
ltoes -15.9332
495
root 2.8572 20.6078 7.74653 20.1298 -2.90026 -6.86596
lowerback -6.65235 0.270719 6.01514
upperback -6.79145 0.171575 2.70402
thorax -3.32403 -0.102846 -0.556992
lowerneck -10.8317 -4.52491 -5.55749
upperneck 23.1973 -5.84334 2.55723
head 9.32292 -2.95449 1.14836
rclavicle -1.22936e-014 1.03368e-014
rhumerus -44.6586 12.607 -81.9905
rradius 51.6213
rwrist 11.3055
rhand -26.9377 -44.6678
rfingers 7.12502
rthumb -0.359905 -74.6473
lclavicle -1.22936e-014 1.03368e-014
lhumerus -46.9716 -21.4318 79.4302
lradius 60.8427
lwrist -5.94651
lhand -33.3118 -43.6613
lfingers 7.12502
lthumb -6.51519 -13.7815
rfemur -51.6112 -1.08196 13.6959
rtibia 70.7671
rfoot 11.638 -4.7845
rtoes -25.1934
lfemur -32.1835 -0.335701 -11.7655
ltibia 28.8204
lfoot 21.3243 3.85756
ltoes -14.9596
496
root 2.90993 20.7041 7.68363 19.4522 -2.77985 -6.26469
lowerback -5.49115 -0.0377022 5.28332
upperback -6.65512 -0.130976 2.60185
thorax -3.83367 -0.234424 -0.263433
lowerneck -10.9009 -4.46163 -5.40033
upperneck 23.1487 -5.75653 2.45146
head 9.30621 -2.91107 1.09507
rclavicle 8.11911e-015 1.05356e-014
rhumerus -44.229 12.4892 -82.2834
rradius 51.2284
rwrist 11.0787
rhand -26.3979 -45.957
rfingers 7.12502
rthumb 0.161467 -75.9367
lclavicle 8.11911e-015 1.05356e-014
lhumerus -47.03 -20.8545 79.7819
lradius 59.525
lwrist -5.92332
lhand -33.4265 -43.4519
lfingers 7.12502
lthumb -6.62596 -13.5756
rfemur -52.8877 -1.9278 13.3142
rtibia 75.1454
rfoot 10.7038 -5.29784
rtoes -23.1948
lfemur -31.4982 -0.618052 -12.3541
ltibia 28.7385
lfoot 21.4553 2.44964
ltoes -13.2534
497
root 2.96639 20.7931 7.62931 18.7113 -2.44312 -6.02004
lowerback -4.35582 -0.318315 5.05879
upperback -6.4931 -0.425239 2.55134
thorax -4.30919 -0.379354 -0.18808
lowerneck -11.1945 -4.42012 -5.19228
upperneck 23.311 -5.69513 2.30439
head 9.40394 -2.87727 1.01011
rclavicle 6.39838e-015 9.93923e-016
rhumerus -43.8771 12.3533 -82.61
rradius 50.7103
rwrist 10.9122
rhand -26.3575 -46.0884
rfingers 7.12502
rthumb 0.20047 -76.068
lclavicle 6.39838e-015 9.93923e-016
lhumerus -47.0457 -20.4572 80.1489
lradius 58.1077
lwrist -5.72065
lhand -33.6509 -43.0356
lfingers 7.12502
lthumb -6.84256 -13.1662
rfemur -53.8944 -2.87941 13.3908
rtibia 79.3866
rfoot 9.63094 -5.64717
rtoes -22.7935
lfemur -30.7557 -0.788531 -12.5904
ltibia 28.5957
lfoot 21.2822 1.71366
ltoes -11.8164
498
root 3.01773 20.8668 7.57814 18.0176 -2.34299 -5.87402
lowerback -3.35581 -0.492782 4.77455
upperback -6.2998 -0.59431 2.52665
thorax -4.67078 -0.454925 -0.0468172
lowerneck -11.2418 -4.37497 -5.17391
upperneck 23.2113 -5.65307 2.39719
head 9.37803 -2.84565 1.04345
rclavicle 1.58034e-014 -2.5345e-014
rhumerus -43.5274 12.062 -82.8354
rradius 50.206
rwrist 10.8587
rhand -26.2172 -46.0439
rfingers 7.12502
rthumb 0.336015 -76.0234
lclavicle 1.58034e-014 -2.5345e-014
lhumerus -47.0652 -20.0591 80.4862
lradius 56.8394
lwrist -5.5739
lhand -33.6352 -42.1111
lfingers 7.12502
lthumb -6.82738 -12.2411
rfemur -54.9572 -3.6642 13.5284
rtibia 83.5793
rfoot 8.43666 -5.84843
rtoes -23.0115
lfemur -29.9403 -0.804128 -12.7825
ltibia 28.3806
lfoot 21.1811 0.955092
ltoes -11.4454
499
root 3.07123 20.9325 7.53533 17.3075 -2.41151 -5.64985
lowerback -2.5725 -0.610399 4.36142
upperback -5.91684 -0.717428 2.49426
thorax -4.70569 -0.494255 0.155085
lowerneck -11.437 -4.38105 -5.28203
upperneck 22.9622 -5.66186 2.56954
head 9.33667 -2.83781 1.11638
rclavicle 1.41634e-015 -1.09332e-014
rhumerus -42.7603 11.5802 -82.8508
rradius 49.6648
rwrist 11.1234
rhand -26.246 -46.1081
rfingers 7.12502
rthumb 0.308123 -76.0876
lclavicle 1.41634e-015 -1.09332e-014
lhumerus -46.7285 -19.4683 80.7186
lradius 55.4806
lwrist -5.5423
lhand -33.4001 -41.4472
lfingers 7.12502
lthumb -6.60045 -11.5701
rfemur -55.9618 -4.47269 13.5043
rtibia 87.608
rfoot 7.25869 -5.83914
rtoes -22.3326
lfemur -29.0191 -0.79524 -13.1004
ltibia 28.1391
lfoot 20.8056 0.536233
ltoes -11.5251
500
root 3.1288 20.9984 7.49327 16.4076 -2.29611 -5.38209
lowerback -1.5185 -0.768109 4.02141
upperback -5.55579 -0.883367 2.4203
thorax -4.92171 -0.562282 0.282045
lowerneck -11.6822 -4.43426 -5.27544
upperneck 22.8956 -5.73691 2.62996
head 9.36439 -2.8626 1.12195
rclavicle 1.54244e-014 -1.47101e-014
rhumerus -42.0827 11.1009 -82.9402
rradius 49.1061
rwrist 11.1912
rhand -26.4546 -46.1726
rfingers 7.12502
rthumb 0.106641 -76.1523
lclavicle 1.54244e-014 -1.47101e-014
lhumerus -46.3873 -18.8722 80.9229
lradius 54.0304
lwrist -5.56854
lhand -33.0036 -41.165
lfingers 7.12502
lthumb -6.21771 -11.2762
rfemur -56.6637 -5.48451 13.43
rtibia 91.4372
rfoot 6.06991 -5.74019
rtoes -20.5042
lfemur -27.9168 -1.01362 -13.3968
ltibia 27.8018
lfoot 20.0968 0.894234
ltoes -12.3435
501
root 3.18725 21.0555 7.45014 15.5133 -2.16918 -5.31829
lowerback -0.230856 -0.916434 3.90387
upperback -5.38485 -1.01526 2.40026
thorax -5.47716 -0.62732 0.353128
lowerneck -11.5731 -4.42733 -5.24827
upperneck 22.8931 -5.74021 2.63301
head 9.34226 -2.8631 1.12046
rclavicle 1.33869e-014 -2.44505e-014
rhumerus -41.9416 10.8542 -83.1748
rradius 48.6809
rwrist 10.7462
rhand -26.0864 -46.3594
rfingers 7.12502
rthumb 0.462319 -76.3387
lclavicle 1.33869e-014 -2.44505e-014
lhumerus -46.3418 -18.2922 81.2052
lradius 52.6446
lwrist -5.66001
lhand -32.464 -40.7055
lfingers 7.12502
lthumb -5.69672 -10.8021
rfemur -57.3451 -6.45367 13.5626
rtibia 95.0601
rfoot 5.23362 -5.6883
rtoes -17.6444
lfemur -26.7368 -1.43314 -13.3676
ltibia 27.2221
lfoot 19.4927 1.60666
ltoes -12.7644
502
root 3.24717 21.101 7.4119 14.8465 -2.18478 -5.4058
lowerback 0.849374 -0.989347 3.88593
upperback -5.33947 -1.04959 2.4432
thorax -6.04903 -0.647538 0.431911
lowerneck -11.1491 -4.3681 -5.28964
upperneck 22.7642 -5.66357 2.61502
head 9.21515 -2.83817 1.14002
rclavicle -3.25199e-014 -6.85807e-015
rhumerus -41.9022 10.7228 -83.3502
rradius 48.1745
rwrist 10.3143
rhand -25.9593 -46.6273
rfingers 7.12502
rthumb 0.585066 -76.6063
lclavicle -3.25199e-014 -6.85807e-015
lhumerus -46.4425 -17.7866 81.6206
lradius 51.2088
lwrist -5.79572
lhand -32.0981 -40.4966
lfingers 7.12502
lthumb -5.34345 -10.584
rfemur -58.3359 -7.31444 13.8862
rtibia 98.5276
rfoot 4.04826 -5.80148
rtoes -17.0314
lfemur -25.7179 -1.87173 -13.1391
ltibia 26.5081
lfoot 19.0846 1.90381
ltoes -12.7106
503
root 3.30077 21.1432 7.3751 14.2916 -2.38542 -5.42318
lowerback 1.72086 -0.985783 3.62942
upperback -5.22698 -1.0084 2.48584
thorax -6.42399 -0.615251 0.633191
lowerneck -11.0003 -4.30261 -5.27529
upperneck 22.5915 -5.57632 2.60998
head 9.12269 -2.79835 1.15012
rclavicle 1.78223e-014 1.98785e-015
rhumerus -41.5304 10.4674 -83.4351
rradius 47.5325
rwrist 10.1204
rhand -25.9922 -47.4042
rfingers 7.12502
rthumb 0.553255 -77.3832
lclavicle 1.78223e-014 1.98785e-015
lhumerus -46.3083 -17.2637 81.9597
lradius 49.736
lwrist -5.91418
lhand -31.8229 -40.566
lfingers 7.12502
lthumb -5.07777 -10.6468
rfemur -59.467 -8.06589 14.2144
rtibia 101.805
rfoot 3.27608 -5.82302
rtoes -15.9118
lfemur -24.747 -2.29026 -12.9752
ltibia 25.6517
lfoot 18.9907 2.0792
ltoes -13.0621
504
root 3.35477 21.1508 7.34615 13.8322 -2.63648 -5.54947
lowerback 2.26123 -0.958153 3.53126
upperback -5.00929 -0.952164 2.53288
thorax -6.50041 -0.579724 0.739443
lowerneck -10.961 -4.26914 -5.2164
upperneck 22.3013 -5.53307 2.60343
head 9.01078 -2.77387 1.14525
rclavicle -1.58158e-014 1.43125e-014
rhumerus -41.0294 10.1521 -83.5351
rradius 46.8591
rwrist 9.58407
rhand -26.0432 -47.8175
rfingers 7.12502
rthumb 0.504043 -77.7966
lclavicle -1.58158e-014 1.43125e-014
lhumerus -45.9311 -16.7717 82.2197
lradius 48.2282
lwrist -5.87636
lhand -31.4916 -40.502
lfingers 7.12502
lthumb -4.75782 -10.5754
rfemur -60.5763 -8.87485 14.6004
rtibia 104.998
rfoot 2.39433 -5.70942
rtoes -14.9793
lfemur -23.7808 -2.64151 -12.7339
ltibia 24.6896
lfoot 19.0617 2.33588
ltoes -13.5815
505
root 3.42399 21.1594 7.32348 13.5591 -2.75524 -6.00186
lowerback 2.67583 -0.918052 4.07443
upperback -4.94846 -0.841832 2.58669
thorax -6.68529 -0.552081 0.491304
lowerneck -10.7123 -4.3264 -5.13475
upperneck 22.103 -5.61223 2.49644
head 8.89389 -2.81803 1.09255
rclavicle -2.36367e-014 1.07344e-014
rhumerus -40.7719 9.57992 -83.5023
rradius 46.2438
rwrist 9.56419
rhand -26.12 -47.028
rfingers 7.12502
rthumb 0.429856 -77.0073
lclavicle -2.36367e-014 1.07344e-014
lhumerus -45.8771 -16.5382 82.5922
lradius 46.8665
lwrist -5.88501
lhand -31.2802 -40.3233
lfingers 7.12502
lthumb -4.55367 -10.3923
rfemur -61.6646 -9.72205 15.3508
rtibia 107.886
rfoot 1.58585 -5.58262
rtoes -14.5469
lfemur -22.919 -2.90032 -12.2012
ltibia 23.6671
lfoot 19.1255 2.5362
ltoes -14.8164
506
root 3.50068 21.1626 7.30208 13.452 -3.07349 -6.55984
lowerback 3.04325 -0.828045 4.77156
upperback -4.99505 -0.646918 2.65665
thorax -6.9573 -0.493583 0.167418
lowerneck -10.6179 -4.36785 -5.12374
upperneck 22.17 -5.68071 2.49794
head 8.902 -2.85065 1.08509
rclavicle -2.41865e-014 1.43125e-014
rhumerus -40.5154 8.91088 -83.3448
rradius 45.7174
rwrist 10.4579
rhand -25.5993 -45.8266
rfingers 7.12502
rthumb 0.932734 -75.8043
lclavicle -2.41865e-014 1.43125e-014
lhumerus -45.9961 -16.1748 82.9109
lradius 45.7292
lwrist -5.95817
lhand -30.8346 -39.9247
lfingers 7.12502
lthumb -4.12345 -9.98491
rfemur -63.0737 -10.304 16.2915
rtibia 110.614
rfoot 1.33211 -5.35173
rtoes -14.5417
lfemur -22.1707 -3.08715 -11.5653
ltibia 22.6065
lfoot 19.3091 3.03561
ltoes -16.1111
